<?xml version="1.0" standalone="no"?>
<!DOCTYPE svg PUBLIC "-//W3C//DTD SVG 20010904//EN"
 "http://www.w3.org/TR/2001/REC-SVG-20010904/DTD/svg10.dtd">
<svg version="1.0" xmlns="http://www.w3.org/2000/svg"
 width="300.000000pt" height="300.000000pt" viewBox="0 0 300.000000 300.000000"
 preserveAspectRatio="xMidYMid meet">
<metadata>
Created by potrace 1.11, written by Peter Selinger 2001-2013
</metadata>
<g transform="translate(0.000000,300.000000) scale(0.100000,-0.100000)"
fill="#000000" stroke="none">
<path d="M1496 2603 c-3 -4 -31 -57 -61 -119 l-54 -111 103 -204 c57 -112 280
-557 496 -989 216 -432 395 -787 396 -789 5 -6 223 -5 229 1 3 3 -119 252
-271 554 l-277 548 277 553 c152 304 276 555 276 558 0 3 -52 4 -117 3 l-116
-3 -216 -432 c-119 -238 -218 -433 -221 -433 -7 0 -93 180 -93 194 0 7 72 157
161 335 89 177 162 326 162 332 0 5 -49 9 -114 9 l-114 0 -107 -215 c-94 -190
-125 -238 -125 -190 0 7 -3 15 -7 17 -5 2 -24 37 -44 78 l-36 75 58 118 59
117 -118 0 c-65 0 -122 -3 -126 -7z"/>
<path d="M1218 2049 l-56 -112 385 -766 c212 -421 389 -770 394 -775 9 -10
216 -13 225 -3 7 6 -873 1761 -885 1765 -4 1 -33 -48 -63 -109z"/>
<path d="M1034 1678 c-15 -29 -165 -330 -334 -668 -283 -566 -306 -615 -286
-620 25 -6 204 -5 211 1 2 3 101 200 221 439 l216 435 51 -101 50 -101 -166
-334 c-91 -183 -162 -336 -157 -339 7 -4 137 -4 205 0 16 1 42 47 125 215 58
117 108 214 111 214 3 1 26 -44 52 -99 l47 -99 -55 -111 c-31 -61 -54 -114
-51 -118 3 -5 348 -8 448 -3 14 1 -57 150 -318 669 -185 367 -338 669 -339
670 -2 2 -16 -20 -31 -50z"/>
</g>
</svg>
